<svg width="113" height="76" viewBox="0 0 113 76" fill="none" xmlns="http://www.w3.org/2000/svg">
<style>
    path { fill: black; }
    @media (prefers-color-scheme: dark) {
      path { fill: white; }
    }
  </style>
<path d="M47 23.5C47 18.8521 45.6217 14.3087 43.0395 10.4441C40.4573 6.57954 36.7871 3.56749 32.4931 1.78883C28.199 0.0101716 23.4739 -0.455207 18.9154 0.451546C14.3568 1.3583 10.1695 3.59646 6.88299 6.88299C3.59646 10.1695 1.3583 14.3568 0.451546 18.9154C-0.455207 23.4739 0.0101716 28.199 1.78883 32.4931C3.56749 36.7871 6.57954 40.4573 10.4441 43.0395C14.3087 45.6217 18.8521 47 23.5 47L23.5 35.25C21.1761 35.25 18.9043 34.5609 16.972 33.2698C15.0398 31.9787 13.5337 30.1436 12.6444 27.9965C11.7551 25.8495 11.5224 23.487 11.9758 21.2077C12.4291 18.9284 13.5482 16.8348 15.1915 15.1915C16.8348 13.5482 18.9284 12.4291 21.2077 11.9758C23.487 11.5224 25.8495 11.7551 27.9965 12.6444C30.1436 13.5337 31.9787 15.0398 33.2698 16.972C34.5609 18.9043 35.25 21.1761 35.25 23.5H47Z" />
<path d="M23.5 23.5H35.25V35.25H23.5V23.5Z" />
<path d="M35.25 35.25H47V47H35.25V35.25Z" />
<path d="M64.4639 47.288C63.1519 47.288 61.9279 47.072 60.7919 46.64C59.6719 46.208 58.6959 45.6 57.8639 44.816C57.0479 44.032 56.4079 43.112 55.9439 42.056C55.4959 41 55.2719 39.848 55.2719 38.6C55.2719 37.352 55.4959 36.2 55.9439 35.144C56.4079 34.088 57.0559 33.168 57.8879 32.384C58.7199 31.6 59.6959 30.992 60.8159 30.56C61.9359 30.128 63.1519 29.912 64.4639 29.912C65.7919 29.912 67.0079 30.128 68.1119 30.56C69.2319 30.992 70.1999 31.6 71.0159 32.384C71.8479 33.152 72.4959 34.064 72.9599 35.12C73.4239 36.176 73.6559 37.336 73.6559 38.6C73.6559 39.848 73.4239 41.008 72.9599 42.08C72.4959 43.136 71.8479 44.056 71.0159 44.84C70.1999 45.608 69.2319 46.208 68.1119 46.64C67.0079 47.072 65.7919 47.288 64.4639 47.288ZM69.9599 50.864C69.3039 50.864 68.6799 50.792 68.0879 50.648C67.5119 50.504 66.9359 50.272 66.3599 49.952C65.7999 49.632 65.2079 49.2 64.5839 48.656C63.9759 48.112 63.3119 47.44 62.5919 46.64L66.6719 45.608C67.1039 46.2 67.5039 46.672 67.8719 47.024C68.2399 47.376 68.5919 47.624 68.9279 47.768C69.2799 47.912 69.6479 47.984 70.0319 47.984C71.0559 47.984 71.9679 47.568 72.7679 46.736L74.4959 48.8C73.3599 50.176 71.8479 50.864 69.9599 50.864ZM64.4639 43.976C65.2159 43.976 65.9039 43.848 66.5279 43.592C67.1679 43.336 67.7279 42.968 68.2079 42.488C68.6879 42.008 69.0559 41.44 69.3119 40.784C69.5839 40.112 69.7199 39.384 69.7199 38.6C69.7199 37.8 69.5839 37.072 69.3119 36.416C69.0559 35.76 68.6879 35.192 68.2079 34.712C67.7279 34.232 67.1679 33.864 66.5279 33.608C65.9039 33.352 65.2159 33.224 64.4639 33.224C63.7119 33.224 63.0159 33.352 62.3759 33.608C61.7359 33.864 61.1759 34.232 60.6959 34.712C60.2319 35.192 59.8639 35.76 59.5919 36.416C59.3359 37.072 59.2079 37.8 59.2079 38.6C59.2079 39.384 59.3359 40.112 59.5919 40.784C59.8639 41.44 60.2319 42.008 60.6959 42.488C61.1759 42.968 61.7359 43.336 62.3759 43.592C63.0159 43.848 63.7119 43.976 64.4639 43.976ZM81.7619 47.192C80.6899 47.192 79.7299 46.984 78.8819 46.568C78.0499 46.152 77.4019 45.52 76.9379 44.672C76.4739 43.808 76.2419 42.712 76.2419 41.384V34.088H79.9859V40.832C79.9859 41.904 80.2099 42.696 80.6579 43.208C81.1219 43.704 81.7699 43.952 82.6019 43.952C83.1779 43.952 83.6899 43.832 84.1379 43.592C84.5859 43.336 84.9379 42.952 85.1939 42.44C85.4499 41.912 85.5779 41.256 85.5779 40.472V34.088H89.3219V47H85.7699V43.448L86.4179 44.48C85.9859 45.376 85.3459 46.056 84.4979 46.52C83.6659 46.968 82.7539 47.192 81.7619 47.192ZM99.1985 47.192C97.7265 47.192 96.4305 46.904 95.3105 46.328C94.2065 45.752 93.3505 44.968 92.7425 43.976C92.1345 42.968 91.8305 41.824 91.8305 40.544C91.8305 39.248 92.1265 38.104 92.7185 37.112C93.3265 36.104 94.1505 35.32 95.1905 34.76C96.2305 34.184 97.4065 33.896 98.7185 33.896C99.9825 33.896 101.119 34.168 102.127 34.712C103.151 35.24 103.959 36.008 104.551 37.016C105.143 38.008 105.439 39.2 105.439 40.592C105.439 40.736 105.431 40.904 105.415 41.096C105.399 41.272 105.383 41.44 105.367 41.6H94.8785V39.416H103.398L101.959 40.064C101.959 39.392 101.823 38.808 101.551 38.312C101.279 37.816 100.903 37.432 100.423 37.16C99.9425 36.872 99.3825 36.728 98.7425 36.728C98.1025 36.728 97.5345 36.872 97.0385 37.16C96.5585 37.432 96.1825 37.824 95.9105 38.336C95.6385 38.832 95.5025 39.424 95.5025 40.112V40.688C95.5025 41.392 95.6545 42.016 95.9585 42.56C96.2785 43.088 96.7185 43.496 97.2785 43.784C97.8545 44.056 98.5265 44.192 99.2945 44.192C99.9825 44.192 100.583 44.088 101.095 43.88C101.623 43.672 102.103 43.36 102.535 42.944L104.527 45.104C103.935 45.776 103.191 46.296 102.295 46.664C101.399 47.016 100.367 47.192 99.1985 47.192ZM46.5433 71.288C45.1993 71.288 43.9113 71.112 42.6793 70.76C41.4473 70.392 40.4553 69.92 39.7033 69.344L41.0233 66.416C41.7433 66.928 42.5913 67.352 43.5673 67.688C44.5593 68.008 45.5593 68.168 46.5673 68.168C47.3353 68.168 47.9513 68.096 48.4153 67.952C48.8953 67.792 49.2473 67.576 49.4713 67.304C49.6953 67.032 49.8073 66.72 49.8073 66.368C49.8073 65.92 49.6313 65.568 49.2793 65.312C48.9273 65.04 48.4633 64.824 47.8873 64.664C47.3113 64.488 46.6713 64.328 45.9673 64.184C45.2793 64.024 44.5833 63.832 43.8793 63.608C43.1913 63.384 42.5593 63.096 41.9833 62.744C41.4073 62.392 40.9353 61.928 40.5673 61.352C40.2153 60.776 40.0393 60.04 40.0393 59.144C40.0393 58.184 40.2953 57.312 40.8073 56.528C41.3353 55.728 42.1193 55.096 43.1593 54.632C44.2153 54.152 45.5353 53.912 47.1193 53.912C48.1753 53.912 49.2153 54.04 50.2393 54.296C51.2633 54.536 52.1673 54.904 52.9513 55.4L51.7513 58.352C50.9673 57.904 50.1833 57.576 49.3993 57.368C48.6153 57.144 47.8473 57.032 47.0953 57.032C46.3433 57.032 45.7273 57.12 45.2473 57.296C44.7673 57.472 44.4233 57.704 44.2153 57.992C44.0073 58.264 43.9033 58.584 43.9033 58.952C43.9033 59.384 44.0793 59.736 44.4313 60.008C44.7833 60.264 45.2473 60.472 45.8233 60.632C46.3993 60.792 47.0313 60.952 47.7193 61.112C48.4233 61.272 49.1193 61.456 49.8073 61.664C50.5113 61.872 51.1513 62.152 51.7273 62.504C52.3033 62.856 52.7673 63.32 53.1193 63.896C53.4873 64.472 53.6713 65.2 53.6713 66.08C53.6713 67.024 53.4073 67.888 52.8793 68.672C52.3513 69.456 51.5593 70.088 50.5033 70.568C49.4633 71.048 48.1433 71.288 46.5433 71.288ZM62.3039 71.192C60.9119 71.192 59.6719 70.912 58.5839 70.352C57.4959 69.776 56.6399 68.984 56.0159 67.976C55.4079 66.968 55.1039 65.824 55.1039 64.544C55.1039 63.248 55.4079 62.104 56.0159 61.112C56.6399 60.104 57.4959 59.32 58.5839 58.76C59.6719 58.184 60.9119 57.896 62.3039 57.896C63.6639 57.896 64.8479 58.184 65.8559 58.76C66.8639 59.32 67.6079 60.128 68.0879 61.184L65.1839 62.744C64.8479 62.136 64.4239 61.688 63.9119 61.4C63.4159 61.112 62.8719 60.968 62.2799 60.968C61.6399 60.968 61.0639 61.112 60.5519 61.4C60.0399 61.688 59.6319 62.096 59.3279 62.624C59.0399 63.152 58.8959 63.792 58.8959 64.544C58.8959 65.296 59.0399 65.936 59.3279 66.464C59.6319 66.992 60.0399 67.4 60.5519 67.688C61.0639 67.976 61.6399 68.12 62.2799 68.12C62.8719 68.12 63.4159 67.984 63.9119 67.712C64.4239 67.424 64.8479 66.968 65.1839 66.344L68.0879 67.928C67.6079 68.968 66.8639 69.776 65.8559 70.352C64.8479 70.912 63.6639 71.192 62.3039 71.192ZM70.2436 71V58.088H73.8196V61.736L73.3156 60.68C73.6996 59.768 74.3156 59.08 75.1636 58.616C76.0116 58.136 77.0436 57.896 78.2596 57.896V61.352C78.0996 61.336 77.9556 61.328 77.8276 61.328C77.6996 61.312 77.5636 61.304 77.4196 61.304C76.3956 61.304 75.5636 61.6 74.9236 62.192C74.2996 62.768 73.9876 63.672 73.9876 64.904V71H70.2436ZM80.5093 71V58.088H84.2533V71H80.5093ZM82.3813 56.288C81.6933 56.288 81.1333 56.088 80.7013 55.688C80.2693 55.288 80.0533 54.792 80.0533 54.2C80.0533 53.608 80.2693 53.112 80.7013 52.712C81.1333 52.312 81.6933 52.112 82.3813 52.112C83.0693 52.112 83.6293 52.304 84.0613 52.688C84.4933 53.056 84.7093 53.536 84.7093 54.128C84.7093 54.752 84.4933 55.272 84.0613 55.688C83.6453 56.088 83.0853 56.288 82.3813 56.288ZM95.36 71.192C94.272 71.192 93.32 70.952 92.504 70.472C91.688 69.992 91.048 69.264 90.584 68.288C90.136 67.296 89.912 66.048 89.912 64.544C89.912 63.024 90.128 61.776 90.56 60.8C90.992 59.824 91.616 59.096 92.432 58.616C93.248 58.136 94.224 57.896 95.36 57.896C96.576 57.896 97.664 58.176 98.624 58.736C99.6 59.28 100.368 60.048 100.928 61.04C101.504 62.032 101.792 63.2 101.792 64.544C101.792 65.904 101.504 67.08 100.928 68.072C100.368 69.064 99.6 69.832 98.624 70.376C97.664 70.92 96.576 71.192 95.36 71.192ZM87.728 75.656V58.088H91.304V60.728L91.232 64.568L91.472 68.384V75.656H87.728ZM94.712 68.12C95.336 68.12 95.888 67.976 96.368 67.688C96.864 67.4 97.256 66.992 97.544 66.464C97.848 65.92 98 65.28 98 64.544C98 63.792 97.848 63.152 97.544 62.624C97.256 62.096 96.864 61.688 96.368 61.4C95.888 61.112 95.336 60.968 94.712 60.968C94.088 60.968 93.528 61.112 93.032 61.4C92.536 61.688 92.144 62.096 91.856 62.624C91.568 63.152 91.424 63.792 91.424 64.544C91.424 65.28 91.568 65.92 91.856 66.464C92.144 66.992 92.536 67.4 93.032 67.688C93.528 67.976 94.088 68.12 94.712 68.12ZM109.578 71.192C108.058 71.192 106.874 70.808 106.026 70.04C105.178 69.256 104.754 68.096 104.754 66.56V55.232H108.498V66.512C108.498 67.056 108.642 67.48 108.93 67.784C109.218 68.072 109.61 68.216 110.106 68.216C110.698 68.216 111.202 68.056 111.618 67.736L112.626 70.376C112.242 70.648 111.778 70.856 111.234 71C110.706 71.128 110.154 71.192 109.578 71.192ZM102.762 61.256V58.376H111.714V61.256H102.762Z" />
</svg>
