<svg width="127" height="52" viewBox="0 0 127 52" fill="none" xmlns="http://www.w3.org/2000/svg">
<path d="M47 23.5C47 18.8521 45.6217 14.3087 43.0395 10.4441C40.4573 6.57954 36.7871 3.56749 32.4931 1.78883C28.199 0.0101716 23.4739 -0.455207 18.9154 0.451546C14.3568 1.3583 10.1695 3.59646 6.88299 6.88299C3.59646 10.1695 1.3583 14.3568 0.451546 18.9154C-0.455207 23.4739 0.0101716 28.199 1.78883 32.4931C3.56749 36.7871 6.57954 40.4573 10.4441 43.0395C14.3087 45.6217 18.8521 47 23.5 47L23.5 35.25C21.1761 35.25 18.9043 34.5609 16.972 33.2698C15.0398 31.9787 13.5337 30.1436 12.6444 27.9965C11.7551 25.8495 11.5224 23.487 11.9758 21.2077C12.4291 18.9284 13.5482 16.8348 15.1915 15.1915C16.8348 13.5482 18.9284 12.4291 21.2077 11.9758C23.487 11.5224 25.8495 11.7551 27.9965 12.6444C30.1436 13.5337 31.9787 15.0398 33.2698 16.972C34.5609 18.9043 35.25 21.1761 35.25 23.5H47Z" fill="white"/>
<path d="M23.5 23.5H35.25V35.25H23.5V23.5Z" fill="white"/>
<path d="M35.25 35.25H47V47H35.25V35.25Z" fill="white"/>
<path d="M60.5433 47.288C59.1993 47.288 57.9113 47.112 56.6793 46.76C55.4473 46.392 54.4553 45.92 53.7033 45.344L55.0233 42.416C55.7433 42.928 56.5913 43.352 57.5673 43.688C58.5593 44.008 59.5593 44.168 60.5673 44.168C61.3353 44.168 61.9513 44.096 62.4153 43.952C62.8953 43.792 63.2473 43.576 63.4713 43.304C63.6953 43.032 63.8073 42.72 63.8073 42.368C63.8073 41.92 63.6313 41.568 63.2793 41.312C62.9273 41.04 62.4633 40.824 61.8873 40.664C61.3113 40.488 60.6713 40.328 59.9673 40.184C59.2793 40.024 58.5833 39.832 57.8793 39.608C57.1913 39.384 56.5593 39.096 55.9833 38.744C55.4073 38.392 54.9353 37.928 54.5673 37.352C54.2153 36.776 54.0393 36.04 54.0393 35.144C54.0393 34.184 54.2953 33.312 54.8073 32.528C55.3353 31.728 56.1193 31.096 57.1593 30.632C58.2153 30.152 59.5353 29.912 61.1193 29.912C62.1753 29.912 63.2153 30.04 64.2393 30.296C65.2633 30.536 66.1673 30.904 66.9513 31.4L65.7513 34.352C64.9673 33.904 64.1833 33.576 63.3993 33.368C62.6153 33.144 61.8473 33.032 61.0953 33.032C60.3433 33.032 59.7273 33.12 59.2473 33.296C58.7673 33.472 58.4233 33.704 58.2153 33.992C58.0073 34.264 57.9033 34.584 57.9033 34.952C57.9033 35.384 58.0793 35.736 58.4313 36.008C58.7833 36.264 59.2473 36.472 59.8233 36.632C60.3993 36.792 61.0313 36.952 61.7193 37.112C62.4233 37.272 63.1193 37.456 63.8073 37.664C64.5113 37.872 65.1513 38.152 65.7273 38.504C66.3033 38.856 66.7673 39.32 67.1193 39.896C67.4873 40.472 67.6713 41.2 67.6713 42.08C67.6713 43.024 67.4073 43.888 66.8793 44.672C66.3513 45.456 65.5593 46.088 64.5033 46.568C63.4633 47.048 62.1433 47.288 60.5433 47.288ZM76.3039 47.192C74.9119 47.192 73.6719 46.912 72.5839 46.352C71.4959 45.776 70.6399 44.984 70.0159 43.976C69.4079 42.968 69.1039 41.824 69.1039 40.544C69.1039 39.248 69.4079 38.104 70.0159 37.112C70.6399 36.104 71.4959 35.32 72.5839 34.76C73.6719 34.184 74.9119 33.896 76.3039 33.896C77.6639 33.896 78.8479 34.184 79.8559 34.76C80.8639 35.32 81.6079 36.128 82.0879 37.184L79.1839 38.744C78.8479 38.136 78.4239 37.688 77.9119 37.4C77.4159 37.112 76.8719 36.968 76.2799 36.968C75.6399 36.968 75.0639 37.112 74.5519 37.4C74.0399 37.688 73.6319 38.096 73.3279 38.624C73.0399 39.152 72.8959 39.792 72.8959 40.544C72.8959 41.296 73.0399 41.936 73.3279 42.464C73.6319 42.992 74.0399 43.4 74.5519 43.688C75.0639 43.976 75.6399 44.12 76.2799 44.12C76.8719 44.12 77.4159 43.984 77.9119 43.712C78.4239 43.424 78.8479 42.968 79.1839 42.344L82.0879 43.928C81.6079 44.968 80.8639 45.776 79.8559 46.352C78.8479 46.912 77.6639 47.192 76.3039 47.192ZM84.2436 47V34.088H87.8196V37.736L87.3156 36.68C87.6996 35.768 88.3156 35.08 89.1636 34.616C90.0116 34.136 91.0436 33.896 92.2596 33.896V37.352C92.0996 37.336 91.9556 37.328 91.8276 37.328C91.6996 37.312 91.5636 37.304 91.4196 37.304C90.3956 37.304 89.5636 37.6 88.9236 38.192C88.2996 38.768 87.9876 39.672 87.9876 40.904V47H84.2436ZM94.5093 47V34.088H98.2533V47H94.5093ZM96.3813 32.288C95.6933 32.288 95.1333 32.088 94.7013 31.688C94.2693 31.288 94.0533 30.792 94.0533 30.2C94.0533 29.608 94.2693 29.112 94.7013 28.712C95.1333 28.312 95.6933 28.112 96.3813 28.112C97.0693 28.112 97.6293 28.304 98.0613 28.688C98.4933 29.056 98.7093 29.536 98.7093 30.128C98.7093 30.752 98.4933 31.272 98.0613 31.688C97.6453 32.088 97.0853 32.288 96.3813 32.288ZM109.36 47.192C108.272 47.192 107.32 46.952 106.504 46.472C105.688 45.992 105.048 45.264 104.584 44.288C104.136 43.296 103.912 42.048 103.912 40.544C103.912 39.024 104.128 37.776 104.56 36.8C104.992 35.824 105.616 35.096 106.432 34.616C107.248 34.136 108.224 33.896 109.36 33.896C110.576 33.896 111.664 34.176 112.624 34.736C113.6 35.28 114.368 36.048 114.928 37.04C115.504 38.032 115.792 39.2 115.792 40.544C115.792 41.904 115.504 43.08 114.928 44.072C114.368 45.064 113.6 45.832 112.624 46.376C111.664 46.92 110.576 47.192 109.36 47.192ZM101.728 51.656V34.088H105.304V36.728L105.232 40.568L105.472 44.384V51.656H101.728ZM108.712 44.12C109.336 44.12 109.888 43.976 110.368 43.688C110.864 43.4 111.256 42.992 111.544 42.464C111.848 41.92 112 41.28 112 40.544C112 39.792 111.848 39.152 111.544 38.624C111.256 38.096 110.864 37.688 110.368 37.4C109.888 37.112 109.336 36.968 108.712 36.968C108.088 36.968 107.528 37.112 107.032 37.4C106.536 37.688 106.144 38.096 105.856 38.624C105.568 39.152 105.424 39.792 105.424 40.544C105.424 41.28 105.568 41.92 105.856 42.464C106.144 42.992 106.536 43.4 107.032 43.688C107.528 43.976 108.088 44.12 108.712 44.12ZM123.578 47.192C122.058 47.192 120.874 46.808 120.026 46.04C119.178 45.256 118.754 44.096 118.754 42.56V31.232H122.498V42.512C122.498 43.056 122.642 43.48 122.93 43.784C123.218 44.072 123.61 44.216 124.106 44.216C124.698 44.216 125.202 44.056 125.618 43.736L126.626 46.376C126.242 46.648 125.778 46.856 125.234 47C124.706 47.128 124.154 47.192 123.578 47.192ZM116.762 37.256V34.376H125.714V37.256H116.762Z" fill="white"/>
<path d="M61.2608 24.288C59.9488 24.288 58.7248 24.072 57.5888 23.64C56.4688 23.208 55.4928 22.6 54.6608 21.816C53.8448 21.032 53.2048 20.112 52.7408 19.056C52.2928 18 52.0688 16.848 52.0688 15.6C52.0688 14.352 52.2928 13.2 52.7408 12.144C53.2048 11.088 53.8528 10.168 54.6848 9.384C55.5168 8.6 56.4928 7.992 57.6128 7.56C58.7328 7.128 59.9488 6.912 61.2608 6.912C62.5888 6.912 63.8048 7.128 64.9088 7.56C66.0288 7.992 66.9968 8.6 67.8128 9.384C68.6448 10.152 69.2928 11.064 69.7568 12.12C70.2208 13.176 70.4528 14.336 70.4528 15.6C70.4528 16.848 70.2208 18.008 69.7568 19.08C69.2928 20.136 68.6448 21.056 67.8128 21.84C66.9968 22.608 66.0288 23.208 64.9088 23.64C63.8048 24.072 62.5888 24.288 61.2608 24.288ZM66.7568 27.864C66.1008 27.864 65.4768 27.792 64.8848 27.648C64.3088 27.504 63.7328 27.272 63.1568 26.952C62.5968 26.632 62.0048 26.2 61.3808 25.656C60.7728 25.112 60.1088 24.44 59.3888 23.64L63.4688 22.608C63.9008 23.2 64.3008 23.672 64.6688 24.024C65.0368 24.376 65.3888 24.624 65.7248 24.768C66.0768 24.912 66.4448 24.984 66.8288 24.984C67.8528 24.984 68.7648 24.568 69.5648 23.736L71.2928 25.8C70.1568 27.176 68.6448 27.864 66.7568 27.864ZM61.2608 20.976C62.0128 20.976 62.7008 20.848 63.3248 20.592C63.9648 20.336 64.5248 19.968 65.0048 19.488C65.4848 19.008 65.8528 18.44 66.1088 17.784C66.3808 17.112 66.5168 16.384 66.5168 15.6C66.5168 14.8 66.3808 14.072 66.1088 13.416C65.8528 12.76 65.4848 12.192 65.0048 11.712C64.5248 11.232 63.9648 10.864 63.3248 10.608C62.7008 10.352 62.0128 10.224 61.2608 10.224C60.5088 10.224 59.8128 10.352 59.1728 10.608C58.5328 10.864 57.9728 11.232 57.4928 11.712C57.0288 12.192 56.6608 12.76 56.3888 13.416C56.1328 14.072 56.0048 14.8 56.0048 15.6C56.0048 16.384 56.1328 17.112 56.3888 17.784C56.6608 18.44 57.0288 19.008 57.4928 19.488C57.9728 19.968 58.5328 20.336 59.1728 20.592C59.8128 20.848 60.5088 20.976 61.2608 20.976ZM78.5588 24.192C77.4868 24.192 76.5268 23.984 75.6788 23.568C74.8468 23.152 74.1988 22.52 73.7348 21.672C73.2708 20.808 73.0388 19.712 73.0388 18.384V11.088H76.7828V17.832C76.7828 18.904 77.0068 19.696 77.4548 20.208C77.9188 20.704 78.5668 20.952 79.3988 20.952C79.9748 20.952 80.4868 20.832 80.9348 20.592C81.3828 20.336 81.7348 19.952 81.9908 19.44C82.2468 18.912 82.3748 18.256 82.3748 17.472V11.088H86.1188V24H82.5668V20.448L83.2148 21.48C82.7828 22.376 82.1428 23.056 81.2948 23.52C80.4628 23.968 79.5508 24.192 78.5588 24.192ZM95.9954 24.192C94.5234 24.192 93.2274 23.904 92.1074 23.328C91.0034 22.752 90.1474 21.968 89.5394 20.976C88.9314 19.968 88.6274 18.824 88.6274 17.544C88.6274 16.248 88.9234 15.104 89.5154 14.112C90.1234 13.104 90.9474 12.32 91.9874 11.76C93.0274 11.184 94.2034 10.896 95.5154 10.896C96.7794 10.896 97.9154 11.168 98.9234 11.712C99.9474 12.24 100.755 13.008 101.347 14.016C101.939 15.008 102.235 16.2 102.235 17.592C102.235 17.736 102.227 17.904 102.211 18.096C102.195 18.272 102.179 18.44 102.163 18.6H91.6754V16.416H100.195L98.7554 17.064C98.7554 16.392 98.6194 15.808 98.3474 15.312C98.0754 14.816 97.6994 14.432 97.2194 14.16C96.7394 13.872 96.1794 13.728 95.5394 13.728C94.8994 13.728 94.3314 13.872 93.8354 14.16C93.3554 14.432 92.9794 14.824 92.7074 15.336C92.4354 15.832 92.2994 16.424 92.2994 17.112V17.688C92.2994 18.392 92.4514 19.016 92.7554 19.56C93.0754 20.088 93.5154 20.496 94.0754 20.784C94.6514 21.056 95.3234 21.192 96.0914 21.192C96.7794 21.192 97.3794 21.088 97.8914 20.88C98.4194 20.672 98.8994 20.36 99.3314 19.944L101.323 22.104C100.731 22.776 99.9874 23.296 99.0914 23.664C98.1954 24.016 97.1634 24.192 95.9954 24.192Z" fill="white"/>
</svg>
