<svg width="100" height="100" viewBox="0 0 500 500" xmlns="http://www.w3.org/2000/svg">
<path d="M500 250C500 200.555 485.338 152.22 457.868 111.107C430.397 69.9952 391.353 37.952 345.671 19.0301C299.989 0.108208 249.723 -4.84263 201.228 4.80368C152.732 14.45 108.187 38.2602 73.2234 73.2233C38.2603 108.186 14.4501 152.732 4.8038 201.227C-4.8425 249.723 0.108331 299.989 19.0302 345.671C37.9521 391.352 69.9953 430.397 111.108 457.867C152.22 485.338 200.555 500 250 500L250 375C225.277 375 201.11 367.669 180.554 353.934C159.998 340.199 143.976 320.676 134.515 297.835C125.054 274.995 122.579 249.861 127.402 225.614C132.225 201.366 144.13 179.093 161.612 161.612C179.093 144.13 201.366 132.225 225.614 127.402C249.861 122.579 274.995 125.054 297.836 134.515C320.676 143.976 340.199 159.998 353.934 180.554C367.669 201.11 375 225.277 375 250H500Z" fill="#FF0077"/>
<path d="M250 250H375V375H250V250Z" fill="#FF0077"/>
<path d="M375 375H500V500H375V375Z" fill="#FF0077"/>
</svg>
